<svg width="165" height="165" viewBox="0 0 165 165" fill="none" xmlns="http://www.w3.org/2000/svg">
<path d="M45.839 52.5035C45.1042 60.341 44.5886 74.2113 49.2163 80.1152C49.2163 80.1152 47.0378 64.8785 66.5671 45.7617C74.4304 38.066 76.248 27.5988 73.5023 19.7484C71.9425 15.3012 69.0937 11.6273 66.6187 9.06211C65.1749 7.55391 66.2835 5.06602 68.3847 5.15625C81.0948 5.72344 101.694 9.25547 110.447 31.2211C114.288 40.8633 114.572 50.8277 112.741 60.9598C111.581 67.4309 107.456 81.8168 116.866 83.5828C123.582 84.8461 126.831 79.5094 128.287 75.668C128.893 74.0695 130.994 73.6699 132.129 74.9461C143.473 87.8496 144.439 103.048 142.093 116.132C137.556 141.423 111.942 159.831 86.496 159.831C54.7077 159.831 29.4034 141.642 22.8421 108.72C20.1995 95.4293 21.5401 69.1324 42.0362 50.5699C43.5573 49.1777 46.0452 50.4152 45.839 52.5035Z" fill="url(#paint0_radial_43_150)"/>
<path d="M98.1105 99.7992C86.3929 84.7172 91.6394 67.5082 94.514 60.6504C94.9007 59.748 93.8694 58.8973 93.0573 59.4516C88.0171 62.8805 77.6917 70.95 72.8835 82.3066C66.3737 97.6594 66.8378 105.175 70.6921 114.353C73.0124 119.883 70.3183 121.056 68.9648 121.262C67.6499 121.468 66.4382 120.592 65.4714 119.677C62.6901 117.006 60.7081 113.614 59.748 109.88C59.5417 109.08 58.4976 108.861 58.0206 109.519C54.4112 114.507 52.5421 122.513 52.4519 128.171C52.1683 145.664 66.6187 159.844 84.0983 159.844C106.128 159.844 122.177 135.48 109.519 115.113C105.845 109.184 102.39 105.304 98.1105 99.7992Z" fill="url(#paint1_radial_43_150)"/>
<defs>
<radialGradient id="paint0_radial_43_150" cx="0" cy="0" r="1" gradientUnits="userSpaceOnUse" gradientTransform="translate(80.1999 160.232) rotate(-179.751) scale(90.9919 149.3)">
<stop offset="0.314" stop-color="#FF9800"/>
<stop offset="0.662" stop-color="#FF6D00"/>
<stop offset="0.972" stop-color="#F44336"/>
</radialGradient>
<radialGradient id="paint1_radial_43_150" cx="0" cy="0" r="1" gradientUnits="userSpaceOnUse" gradientTransform="translate(85.31 69.6846) rotate(90.5787) scale(95.2055 71.6493)">
<stop offset="0.214" stop-color="#FFF176"/>
<stop offset="0.328" stop-color="#FFF27D"/>
<stop offset="0.487" stop-color="#FFF48F"/>
<stop offset="0.672" stop-color="#FFF7AD"/>
<stop offset="0.793" stop-color="#FFF9C4"/>
<stop offset="0.822" stop-color="#FFF8BD" stop-opacity="0.804"/>
<stop offset="0.863" stop-color="#FFF6AB" stop-opacity="0.529"/>
<stop offset="0.91" stop-color="#FFF38D" stop-opacity="0.209"/>
<stop offset="0.941" stop-color="#FFF176" stop-opacity="0"/>
</radialGradient>
</defs>
</svg>
